<?xml version="1.0" standalone="no"?>
<!DOCTYPE svg PUBLIC "-//W3C//DTD SVG 20010904//EN"
 "http://www.w3.org/TR/2001/REC-SVG-20010904/DTD/svg10.dtd">
<svg version="1.0" xmlns="http://www.w3.org/2000/svg"
 width="336.000000pt" height="336.000000pt" viewBox="0 0 336.000000 336.000000"
 preserveAspectRatio="xMidYMid meet">

<g transform="translate(0.000000,336.000000) scale(0.100000,-0.100000)"
fill="#000000" stroke="none">
<path d="M0 1680 l0 -1680 1618 0 1619 0 59 24 59 24 3 1656 2 1656 -1680 0
-1680 0 0 -1680z m1625 1070 c44 -6 105 -18 135 -25 30 -8 66 -16 80 -18 14
-3 42 -12 62 -20 51 -21 84 -95 91 -202 2 -44 12 -98 22 -120 26 -62 65 -317
60 -388 -5 -60 -21 -123 -37 -142 -4 -5 -8 -17 -8 -27 0 -10 -9 -27 -21 -39
-20 -20 -20 -22 -4 -39 17 -18 16 -19 -4 -15 -11 2 -26 7 -31 10 -6 3 -10 -3
-10 -14 0 -12 -4 -21 -9 -21 -5 0 -12 -7 -15 -16 -4 -11 -2 -15 8 -11 8 3 20
-2 28 -11 9 -11 10 -14 1 -8 -8 4 -13 1 -13 -9 0 -9 -4 -14 -9 -11 -5 3 -12
-1 -15 -10 -4 -11 -14 -14 -27 -11 -15 4 -23 -1 -29 -19 -5 -13 -14 -24 -20
-24 -6 0 -8 -5 -5 -10 4 -6 -7 -8 -29 -4 -38 6 -80 -11 -70 -28 4 -7 -1 -8
-16 -3 -14 4 -20 3 -16 -3 8 -13 -12 -20 -44 -15 -28 4 -44 5 -80 3 -14 -1
-57 0 -96 2 -60 3 -71 1 -66 -12 5 -12 3 -13 -10 -3 -8 7 -18 10 -21 6 -4 -3
-7 -1 -7 5 0 12 -38 27 -57 24 -7 -2 -13 4 -13 13 0 8 -4 15 -10 15 -5 0 -9 5
-7 11 1 6 -4 14 -12 17 -10 3 -12 0 -8 -12 9 -22 -9 -20 -33 4 -18 18 -20 18
-20 3 -1 -13 -5 -10 -16 10 -17 32 -20 33 -20 8 0 -11 5 -17 11 -14 5 3 5 0
-1 -6 -15 -16 -57 7 -49 26 2 7 0 13 -4 13 -5 0 -7 10 -3 23 5 20 4 21 -13 7
-12 -10 -16 -10 -11 -2 4 7 1 24 -9 38 -9 13 -13 29 -9 35 4 7 -2 9 -16 7 -16
-2 -24 3 -26 16 -4 29 6 39 24 24 15 -11 15 -11 4 3 -7 9 -10 23 -7 31 3 7 -3
23 -13 34 -10 10 -16 26 -14 33 3 8 0 11 -7 7 -6 -4 -11 -3 -11 3 0 5 4 11 10
13 6 2 4 15 -5 32 -8 15 -15 44 -15 62 0 39 -8 42 -33 14 -24 -28 -21 -57 9
-92 33 -40 31 -101 -3 -106 -26 -4 -43 20 -69 93 -15 43 -16 62 -7 125 l10 75
1 -80 c0 -44 7 -96 14 -115 11 -31 19 -36 45 -31 3 0 -1 9 -10 19 -34 37 -40
77 -21 134 9 29 22 56 28 60 7 5 4 12 -9 22 -24 18 -45 20 -45 4 0 -6 -3 -8
-6 -5 -13 13 19 37 48 37 34 0 44 -19 30 -59 -8 -23 -7 -32 4 -42 12 -9 14 -6
14 17 0 52 60 296 81 330 13 22 23 63 29 118 12 117 44 172 131 226 27 16 49
29 49 27 0 -1 39 2 88 8 48 6 96 10 107 8 11 -1 56 -7 100 -13z m529 -646 c9
-3 16 -14 16 -23 0 -13 -2 -14 -10 -1 -13 21 -62 -6 -51 -29 36 -71 40 -147
10 -185 -23 -29 -11 -36 14 -8 31 34 46 87 42 148 l-4 59 9 -55 c19 -108 -32
-240 -92 -240 -12 0 -2 98 11 114 16 20 16 61 -1 85 -10 13 -15 28 -12 33 3 4
5 27 6 51 0 23 2 45 5 50 5 9 35 9 57 1z m-1080 -309 c-4 -8 -8 -15 -10 -15
-2 0 -4 7 -4 15 0 8 4 15 10 15 5 0 7 -7 4 -15z m925 -112 c-1 -5 0 -10 1 -13
7 -19 7 -39 -1 -34 -5 3 -9 12 -9 20 0 8 -5 14 -11 14 -5 0 -7 5 -4 10 7 12
26 14 24 3z m-766 -327 c30 -30 53 -57 51 -59 -2 -2 12 -12 31 -23 38 -20 49
-42 13 -24 -21 10 -21 9 2 -9 17 -14 20 -21 10 -21 -8 -1 6 -12 32 -26 80 -41
245 -60 296 -33 16 9 25 10 33 2 8 -8 1 -14 -23 -22 -49 -16 -128 -20 -128 -7
0 6 -5 4 -10 -4 -7 -12 -30 -15 -118 -13 -175 4 -270 44 -301 126 -7 18 -7 26
-1 22 6 -4 10 7 10 24 0 23 -4 29 -15 25 -21 -8 -20 49 0 66 8 7 15 18 14 24
-1 6 -1 31 0 56 l2 45 24 -47 c13 -25 49 -71 78 -102z m768 56 c-5 -2 -8 -9
-5 -16 3 -7 -6 -28 -20 -48 -13 -20 -22 -38 -20 -41 12 -12 -150 -117 -180
-117 -5 0 -18 -8 -29 -17 -16 -14 -19 -15 -15 -3 2 8 20 25 39 38 19 13 32 26
30 30 -3 4 10 17 29 30 18 12 29 22 25 22 -4 0 -2 7 5 15 10 12 10 15 0 15 -9
0 -7 7 5 20 10 11 22 20 26 20 5 0 22 13 37 30 16 16 32 26 36 22 4 -4 6 -2 4
3 -1 6 6 22 17 37 l20 26 3 -31 c2 -17 -1 -33 -7 -35z m1069 -318 c6 -18 28
-47 48 -63 74 -60 124 -118 166 -193 24 -43 46 -90 50 -105 5 -23 4 -25 -4
-10 -6 9 -16 14 -22 11 -7 -4 -8 -2 -4 4 4 7 1 12 -9 12 -11 0 -14 6 -9 24 3
15 -1 35 -12 53 -25 38 -61 72 -70 64 -4 -3 -2 4 4 15 14 26 -5 47 -41 47 -13
0 -29 8 -36 19 -10 16 -10 19 0 12 22 -13 -30 54 -59 76 -45 35 -64 88 -27 74
8 -3 19 -21 25 -40z m-2770 -127 c0 -2 -10 -12 -22 -23 l-23 -19 19 23 c18 21
26 27 26 19z m-55 -67 c-10 -11 -20 -18 -23 -15 -7 6 18 35 31 35 5 0 2 -9 -8
-20z"/>
<path d="M1217 2367 c-52 -37 -53 -50 -4 -36 50 14 72 11 102 -15 l27 -24 -51
-7 c-52 -7 -101 -36 -101 -59 0 -8 18 -16 42 -20 29 -5 38 -10 29 -15 -22 -14
3 -22 82 -28 64 -4 76 -2 107 19 19 13 39 33 45 45 6 11 17 28 24 37 16 19 76
21 91 4 38 -46 50 -62 50 -69 0 -36 164 -65 190 -34 8 10 30 15 61 15 53 0 60
7 29 35 -11 10 -20 24 -20 31 0 7 -18 19 -40 25 -22 7 -37 15 -34 18 11 11
104 6 104 -6 0 -6 8 -9 20 -6 18 5 19 6 2 29 -9 13 -34 28 -54 34 -20 6 -40
15 -44 21 -4 7 -24 8 -53 4 -25 -3 -71 -8 -101 -10 -38 -3 -59 -10 -68 -22
-12 -17 -14 -17 -23 0 -12 21 -29 22 -29 3 0 -21 -15 -28 -45 -20 -19 5 -25
13 -25 34 0 25 -3 27 -31 24 -17 -2 -36 -1 -43 4 -6 4 -31 8 -56 9 -25 1 -65
5 -90 8 -40 6 -50 3 -93 -28z m116 -104 c-7 -2 -19 -2 -25 0 -7 3 -2 5 12 5
14 0 19 -2 13 -5z m512 -23 c3 -6 -1 -7 -9 -4 -18 7 -21 14 -7 14 6 0 13 -4
16 -10z"/>
<path d="M1637 2363 c-4 -3 -7 -11 -7 -17 0 -6 5 -5 12 2 6 6 9 14 7 17 -3 3
-9 2 -12 -2z"/>
<path d="M1965 2260 c-3 -6 1 -7 9 -4 18 7 21 14 7 14 -6 0 -13 -4 -16 -10z"/>
<path d="M1387 2043 c-4 -3 -7 -16 -6 -27 0 -19 1 -19 10 3 10 24 8 36 -4 24z"/>
<path d="M1535 2031 c-3 -6 -27 -7 -54 -4 -47 5 -49 4 -65 -27 -19 -38 -8 -60
30 -60 12 0 26 -5 30 -11 5 -8 9 -7 15 4 5 9 23 15 41 15 18 0 38 1 43 2 20 4
38 0 31 -7 -4 -5 -11 -8 -15 -8 -4 0 -16 -8 -26 -18 -13 -14 -15 -21 -6 -30 8
-8 20 -2 45 25 31 33 33 37 18 52 -15 15 -13 16 23 16 33 0 36 -2 23 -12 -9
-7 -19 -23 -23 -35 -6 -20 -3 -23 24 -23 21 0 31 -5 31 -16 0 -8 5 -12 11 -8
7 4 6 11 -4 22 -14 14 -13 17 9 34 29 23 30 32 6 56 -28 28 -52 34 -90 21 -30
-10 -36 -9 -44 5 -10 17 -43 22 -53 7z"/>
<path d="M1434 1834 c-38 -19 -70 -30 -72 -24 -5 15 -32 12 -32 -4 0 -9 -7
-12 -19 -9 -16 4 -18 0 -16 -29 2 -18 3 -36 4 -40 1 -9 40 -1 55 11 7 6 29 10
48 9 22 -1 43 5 53 15 12 13 34 17 83 17 80 0 153 -17 131 -31 -11 -7 -9 -9 9
-10 12 -1 27 -3 32 -4 6 -1 19 -3 29 -4 11 0 33 -12 49 -26 39 -32 51 -32 48
3 -1 15 2 33 8 41 9 12 8 13 -3 6 -11 -6 -13 -4 -8 8 4 10 -3 21 -18 31 -27
18 -39 21 -31 7 3 -5 -2 -12 -11 -15 -10 -4 -26 3 -42 18 -45 41 -92 59 -162
62 -59 2 -75 -2 -135 -32z"/>
<path d="M1306 1823 c-6 -14 -5 -15 5 -6 7 7 10 15 7 18 -3 3 -9 -2 -12 -12z"/>
<path d="M1847 1789 c7 -7 15 -10 18 -7 3 3 -2 9 -12 12 -14 6 -15 5 -6 -5z"/>
<path d="M1127 1715 c-4 -8 -2 -17 3 -20 6 -4 10 3 10 14 0 25 -6 27 -13 6z"/>
<path d="M1152 1696 c-17 -37 -15 -45 4 -18 8 12 14 27 12 33 -2 6 -9 -1 -16
-15z"/>
<path d="M1493 1706 c3 -7 0 -19 -6 -26 -9 -10 -9 -11 1 -6 7 4 12 1 12 -8 0
-10 9 -16 25 -16 14 0 25 5 25 12 0 6 7 3 15 -8 8 -10 15 -13 15 -7 0 8 10 11
28 7 22 -4 29 -2 29 10 0 9 -5 16 -11 16 -6 0 -5 5 2 12 23 23 12 28 -64 28
-61 0 -75 -3 -71 -14z"/>
</g>
</svg>
